<svg width="156" height="53" viewBox="0 0 156 53" fill="none" xmlns="http://www.w3.org/2000/svg">
<path d="M106.878 14.4815V13.6783H106.049H104.883H103.665H102.499H101.696V15.1292V31.1674C101.696 31.4006 101.696 31.6338 101.67 31.867C101.67 32.0743 101.644 32.2556 101.618 32.437C101.437 33.7325 100.97 34.7948 100.193 35.6239C99.2086 36.7121 97.7836 37.2562 95.9699 37.2562H95.7108C93.8971 37.2562 92.4721 36.7121 91.4875 35.6239C90.7102 34.7948 90.2438 33.7325 90.0624 32.4111C90.0365 32.2297 90.0106 32.0224 90.0106 31.8411C90.0106 31.6079 89.9847 31.3747 89.9847 31.1415V14.6887V13.6523H89.1815H88.171H87.0828H85.6319H84.8027V14.4555V32.7738C84.8027 34.6912 85.2432 36.3235 86.176 37.6708C86.6164 38.3444 89.2851 41.8164 95.8403 41.8164C102.344 41.8164 105.064 38.3444 105.505 37.6708C106.412 36.3235 106.878 34.6912 106.878 32.7738V14.4815C106.878 14.5074 106.878 14.4815 106.878 14.4815Z" fill="#2DABFF"/>
<path d="M0 34.9001V39.6416V40.5485V41.3776H0.829116H1.8396H2.66872H4.40468H5.23379V40.5744V39.0198V4.97424V4.0674V3.23828H4.43059H2.74645H1.55459H0.829116H0.0259099V4.0674V4.97424L0 34.9001Z" fill="#2DABFF"/>
<path d="M113.899 13.707H110.297H110.271H109.494V14.5102V15.3394V38.5546V40.6274V41.4565H110.323H110.997H112.033H113.899H114.728V40.6274V39.4355V14.9248V14.5361V13.7329H113.951C113.925 13.707 113.925 13.707 113.899 13.707Z" fill="#2DABFF"/>
<path d="M29.6917 17.6713C28.8107 16.2722 27.5411 15.184 25.8829 14.4067C24.2247 13.6035 22.2814 13.2148 20.0791 13.2148C17.1513 13.2148 14.6121 13.7849 12.643 15.184C8.73057 18.0082 9.04149 22.8274 9.04149 22.8274H14.2235C14.2235 22.8274 14.4307 20.8323 15.4153 19.5369C15.4412 19.5369 15.4412 19.5109 15.4412 19.485C15.519 19.4073 15.5708 19.3296 15.6485 19.2518C15.7262 19.1741 15.804 19.0964 15.8817 19.0446C16.089 18.8632 16.3222 18.7077 16.5813 18.5523C17.514 18.0082 18.7059 17.7232 20.2086 17.7232C22.1001 17.7232 23.4992 18.1636 24.4319 19.0446C25.3647 19.9255 25.8311 21.1692 25.8311 22.7756V24.4597H19.5091C15.9594 24.4597 13.1871 25.2629 11.2179 26.8693C9.22286 28.4758 8.23828 30.704 8.23828 33.5282C8.23828 36.2746 9.09331 38.3474 10.8034 39.7206C12.5134 41.0939 14.6898 41.7675 17.3326 41.7675C17.6177 41.7675 17.8768 41.7675 18.1618 41.7416C18.2913 41.7416 18.4209 41.7157 18.5504 41.7157C18.8095 41.6898 19.0686 41.6639 19.3018 41.638C19.6127 41.5861 19.8977 41.5343 20.1827 41.4825C20.2086 41.4825 20.2345 41.4825 20.2345 41.4825C20.4936 41.4307 20.7527 41.353 20.9859 41.3011C21.2709 41.2234 21.5041 41.1457 21.7632 41.0679C21.7891 41.0679 21.841 41.042 21.8669 41.042C22.0742 40.9643 22.2814 40.8866 22.4628 40.8088C22.696 40.7052 22.9033 40.6016 23.0846 40.5238C23.1105 40.5238 23.1365 40.4979 23.1624 40.4979C23.3178 40.4202 23.4992 40.3166 23.6547 40.2388C23.8101 40.1352 23.9656 40.0575 24.0951 39.9538C24.4319 39.7465 24.717 39.5134 24.9761 39.332C25.0797 39.2283 25.1833 39.1506 25.287 39.0729C25.6497 38.7361 25.8311 38.477 25.8311 38.3992V41.3789H31.0649V22.4128C31.0131 20.651 30.5726 19.0705 29.6917 17.6713ZM25.7793 32.0254C25.7793 33.58 25.0538 34.8755 23.6287 35.886C22.2037 36.8965 20.5196 37.4147 18.6022 37.4147C17.0735 37.4147 15.8299 37.0778 14.8712 36.3783C13.9125 35.7046 13.4203 34.6682 13.4203 33.3468C13.4203 31.844 14.068 30.704 15.3376 29.849C16.6072 29.0199 18.3172 28.6053 20.4677 28.6053H25.8052L25.7793 32.0254Z" fill="#2DABFF"/>
<path d="M55.9658 39.0176V22.8757C55.9658 19.9479 55.0849 17.5901 53.3489 15.88C51.613 14.1441 49.2552 13.2891 46.2755 13.2891C45.9646 13.2891 45.6537 13.2891 45.3687 13.315H45.3428C45.1096 13.3409 44.8764 13.3668 44.6432 13.3927C44.5655 13.3927 44.4878 13.4186 44.4359 13.4186C44.1768 13.4704 43.9436 13.4963 43.7105 13.5482C43.6846 13.5482 43.6586 13.5482 43.6586 13.5482C43.4255 13.6 43.2182 13.6518 43.0368 13.7295C42.6222 13.8591 42.2336 14.0145 41.8709 14.17C41.7154 14.2218 41.5859 14.2995 41.4304 14.3773C40.4458 14.9214 39.7981 15.595 39.4612 16.0873C39.2281 16.3982 39.1244 16.6314 39.1244 16.761V15.9578V14.4291V13.6259H38.2953H36.4039H36.2743H34.7197H33.8906V15.9578V39.4062V41.3494H35.5229H37.0257H39.1244V39.4062V22.8757C39.3058 21.3211 39.9276 20.0774 41.0158 19.1447C42.0781 18.2119 43.3995 17.7715 44.98 17.7715C46.716 17.7715 48.1151 18.3415 49.1774 19.4556C50.2397 20.5697 50.7579 22.0466 50.7579 23.8603V40.5203V41.3235H52.5975H53.7117H55.9658V39.0176Z" fill="#2DABFF"/>
<path d="M81.8755 13.6812H81.0464H79.8027H78.5591H77.4449H76.6158V14.4844V15.4949V16.6609C76.6158 16.4536 76.4604 16.1427 76.1753 15.8058C76.1753 15.8058 76.1753 15.7799 76.1494 15.7799C75.7349 15.3135 75.0612 14.7435 74.1285 14.2771C73.9212 14.1735 73.688 14.0699 73.4548 13.9921C73.403 13.9662 73.3512 13.9403 73.2734 13.9144C72.9884 13.8108 72.7034 13.7071 72.3925 13.6294C72.3925 13.6294 72.3666 13.6035 72.3407 13.6035C72.0557 13.5258 71.7448 13.448 71.4079 13.3962H71.382C71.0452 13.3444 70.7084 13.2926 70.3974 13.2667C70.0865 13.2408 69.8015 13.2148 69.4647 13.2148C69.4129 13.2148 69.3611 13.2148 69.3092 13.2148C66.9255 13.2148 64.8268 13.8626 63.065 15.184C61.3031 16.5054 60.0853 18.2673 59.3858 20.4437C58.8416 22.076 58.5566 24.4079 58.5566 27.4134C58.5566 30.2376 58.7898 32.4659 59.2562 34.0464C59.9817 36.456 61.2772 38.2697 63.1945 39.5134C65.1118 40.7311 67.2364 41.353 69.5942 41.353C70.2679 41.353 70.8897 41.3011 71.4597 41.1975C71.5893 41.1716 71.7188 41.1457 71.8484 41.1198C72.0039 41.1198 72.1593 41.0679 72.2889 41.0161C72.4443 40.9902 72.6257 40.9384 72.7552 40.8866C72.8071 40.8866 72.833 40.8607 72.8589 40.8348C73.2475 40.7311 73.6362 40.5757 73.9989 40.3943C74.1544 40.3166 74.3357 40.2388 74.4653 40.1352C74.6985 40.0315 74.8799 39.902 75.0612 39.7465C75.1649 39.6947 75.2426 39.617 75.3462 39.5393C75.398 39.5134 75.4499 39.4615 75.5017 39.4097C75.6831 39.2543 75.8385 39.1247 75.9422 38.9692C76.3567 38.5288 76.5381 38.1401 76.5381 37.9847V39.7725C76.5381 42.4671 75.8644 44.3844 74.5171 45.5244C73.1698 46.6645 70.9934 47.2345 67.9878 47.2345H65.3968H64.8268V52.1315H67.9878H68.0915C72.237 52.1315 75.5535 51.1728 78.0409 49.2814C80.5282 47.364 81.7719 44.2289 81.7719 39.8761V15.184L81.8755 13.6812ZM76.5381 30.6781C76.4863 31.3517 76.4085 31.9477 76.3049 32.5436C76.0199 33.8909 75.3721 34.9791 74.3617 35.8342C73.3771 36.6892 72.0557 37.1037 70.4752 37.1037C68.9465 37.1037 67.651 36.6633 66.5887 35.8342C65.5264 34.9791 64.8009 33.8909 64.4382 32.5436C64.0754 31.6368 63.8941 29.9267 63.8941 27.4134C63.8941 25.1334 64.1013 23.4492 64.49 22.3351C64.9305 20.9878 65.6559 19.8996 66.6664 19.0446C67.6769 18.1895 68.9465 17.775 70.4752 17.775C72.0039 17.775 73.2734 18.2154 74.2839 19.0446C75.2944 19.8996 75.9681 20.9878 76.2531 22.3351C76.4085 22.9051 76.5122 23.527 76.564 24.1488C76.6158 24.7966 76.6417 25.8589 76.6417 27.3875C76.6417 28.9421 76.5899 30.0303 76.5381 30.6781Z" fill="#2DABFF"/>
<path d="M155.46 13.7063L155.149 14.639L153.828 18.4996L145.925 41.7666L145.096 44.1763C144.474 45.8863 143.878 47.2595 143.282 48.2959C143.153 48.5291 142.997 48.7623 142.868 48.9696C142.168 49.9801 141.313 50.7574 140.251 51.2756C140.044 51.3792 139.811 51.4828 139.603 51.5606C138.256 52.0529 136.365 52.312 133.929 52.312H133.152V47.9073H133.799C135.25 47.9073 136.39 47.7518 137.22 47.415C138.049 47.0782 138.722 46.4822 139.292 45.6013C139.862 44.7204 140.406 43.3731 140.899 41.6112C140.951 41.5335 140.951 41.4298 140.899 41.2744L133.229 18.4996H126.545V40.6266C126.545 40.6266 126.545 40.6266 126.545 40.6525V41.4557H121.311V40.6525C121.311 40.6525 121.311 40.6525 121.311 40.6266V18.4996H116.906V13.7063H121.311V12.4885C121.311 10.1048 121.596 8.23928 122.166 6.94379C122.71 5.62238 123.669 4.68963 125.016 4.14552C125.845 3.80869 126.882 3.54959 128.151 3.42005C128.928 3.34232 129.758 3.31641 130.69 3.31641H133.204V7.90245H131.234C130.664 7.90245 130.146 7.92836 129.706 8.00609C128.721 8.16155 127.996 8.47247 127.529 8.93885C126.882 9.6125 126.545 10.9339 126.545 12.8512V13.7322H137.116L137.271 14.2245L137.297 14.3022L138.619 18.5255L143.231 33.2682L143.49 34.0973L143.619 34.5378L143.749 34.0973L148.49 18.5255L149.786 14.2763L149.941 13.7322L155.46 13.7063Z" fill="#2DABFF"/>
<path d="M111.826 0C110.867 0 109.96 0.336828 109.235 0.880935C109.002 1.0623 108.769 1.26958 108.561 1.50277C107.939 2.25416 107.551 3.21282 107.551 4.24922C107.551 6.39974 109.157 8.18752 111.23 8.47252C112.681 7.12521 112.24 4.97469 112.007 4.50832L113.018 4.06785C113.536 5.18197 113.873 8.70571 110.064 10.4158L110.764 11.789H110.79C113.821 10.7008 116.101 7.98024 116.101 4.56014C116.075 2.22825 114.184 0 111.826 0Z" fill="#2DABFF"/>
</svg>
